<?xml version="1.0" encoding="UTF-8"?>
<svg class="medal medal--gold" viewBox="0 0 38 46" xmlns="http://www.w3.org/2000/svg">
<g fill="none" fill-rule="evenodd" stroke-width="1px">
<g fill="none" stroke-width="1px">
<g stroke-width="1px">
<polygon class="medal__shevron-outer medal__shevron-outer--gold" points="23.392 0 37.758 0 25.815 15.66 11.45 15.66" fill="#4236dd" fill-rule="nonzero"/>
<polygon class="medal__shevron-inner medal__shevron-inner--gold" points="27.942 0 32.884 0 21.262 15.66 16.32 15.66" fill="#eaeae4" fill-rule="nonzero"/>
<circle class="medal__circle medal__circle--gold" cx="19" cy="31.35" r="14.65" fill="#b1978c" fill-rule="nonzero"/>
<path class="medal__line medal__line--gold" d="m11.958 19.574v-3.9149h14.084v3.9149l3.018 1.9574v-7.8298c0-0.42582-0.56951-0.97872-1.006-0.97872h-18.108c-0.43552 0-1.006 0.5529-1.006 0.97872v7.8298l3.018-1.9574z" fill="#b1978c" fill-rule="nonzero"/>
<ellipse class="medal__circle-inner medal__circle-inner--gold" cx="19.487" cy="31.319" rx="11.205" ry="11.255" fill="#886f65" fill-rule="nonzero"/>
<polygon class="medal__shevron-outer medal__shevron-outer--gold" points="14.329 0 0.24354 0 11.953 15.66 26.039 15.66" fill="#4236dd" fill-rule="nonzero"/>
<polygon class="medal__shevron-inner medal__shevron-inner--gold" points="9.7671 0 4.7298 0 16.574 15.66 21.612 15.66" fill="#eaeae4" fill-rule="nonzero"/>
<g transform="translate(9 21.5)" fill="none">
<path class="medal__line medal__line--gold" d="M8.4 9.05a2.13 2.13 0 0 1 .25-.725c.117-.208.283-.383.492-.517.2-.125.45-.183.758-.191.192.008.367.041.525.108.167.075.317.175.433.3.117.125.209.275.284.442.075.166.108.35.116.533h1.492a2.983 2.983 0 0 0-.233-1.075 2.5 2.5 0 0 0-.584-.842 2.722 2.722 0 0 0-.9-.55 3.22 3.22 0 0 0-1.158-.191c-.542 0-1.017.091-1.417.283-.4.192-.733.442-1 .767-.266.325-.466.7-.591 1.133a4.88 4.88 0 0 0-.2 1.367v.225c0 .483.066.933.191 1.366.125.434.325.809.592 1.125.267.317.6.575 1 .759.4.183.875.283 1.417.283.391 0 .758-.067 1.1-.192.341-.125.641-.3.9-.525.258-.225.466-.483.616-.783.15-.3.242-.617.25-.958h-1.491c-.009.175-.05.333-.125.483a1.313 1.313 0 0 1-.733.633 1.655 1.655 0 0 1-.5.084c-.3-.009-.55-.067-.742-.192a1.458 1.458 0 0 1-.492-.517 2.177 2.177 0 0 1-.25-.733 5.617 5.617 0 0 1-.067-.833v-.225c0-.292.025-.567.067-.842zm1.6 7.617A6.676 6.676 0 0 1 3.333 10 6.676 6.676 0 0 1 10 3.333 6.676 6.676 0 0 1 16.667 10 6.676 6.676 0 0 1 10 16.667z" fill="#b1978c" fill-rule="nonzero" mask="url(#b)" stroke-width="1px"/>
</g>
</g>
</g>
</g>
</svg>
