<?xml version="1.0" encoding="UTF-8"?>
<svg class="medal medal--gold" viewBox="0 0 38 46" xmlns="http://www.w3.org/2000/svg">
<g fill="none" fill-rule="evenodd" stroke-width="1px">
<g fill="none" stroke-width="1px">
<g fill-rule="nonzero" stroke-width="1px">
<polygon class="medal__shevron-outer medal__shevron-outer--gold" points="23.392 0 37.758 0 25.815 15.66 11.45 15.66" fill="#4236dd"/>
<polygon class="medal__shevron-inner medal__shevron-inner--gold" points="27.942 0 32.884 0 21.262 15.66 16.32 15.66" fill="#eaeae4"/>
<circle class="medal__circle medal__circle--gold" cx="19" cy="31.35" r="14.65" fill="#b1978c"/>
<path class="medal__line medal__line--gold" d="m11.958 19.574v-3.9149h14.084v3.9149l3.018 1.9574v-7.8298c0-0.42582-0.56951-0.97872-1.006-0.97872h-18.108c-0.43552 0-1.006 0.5529-1.006 0.97872v7.8298l3.018-1.9574z" fill="#b1978c"/>
<ellipse class="medal__circle-inner medal__circle-inner--gold" cx="19.487" cy="31.319" rx="11.205" ry="11.255" fill="#886f65"/>
<polygon class="medal__shevron-outer medal__shevron-outer--gold" points="14.329 0 0.24354 0 11.953 15.66 26.039 15.66" fill="#4236dd"/>
<polygon class="medal__shevron-inner medal__shevron-inner--gold" points="9.7671 0 4.7298 0 16.574 15.66 21.612 15.66" fill="#eaeae4"/>
<g class="medal__line medal__line--gold" fill="#b1978c">
<path d="M13.797 28.646c-1.183 2.054-.43 5.171.878 7.061.653.945 1.315 1.793 2.22 1.793l.052-.001c.426-.017.734-.148 1.031-.275.334-.142.68-.29 1.22-.29.516 0 .845.143 1.163.28.313.136.636.277 1.113.268 1.02-.02 1.647-.934 2.2-1.742a7.72 7.72 0 0 0 .964-1.974l.004-.012a.115.115 0 0 0-.061-.141l-.008-.004c-.18-.073-1.757-.773-1.773-2.679-.015-1.548 1.182-2.368 1.423-2.517l.01-.007a.115.115 0 0 0 .034-.16c-.827-1.211-2.095-1.393-2.605-1.415a2.297 2.297 0 0 0-.227-.011c-.6 0-1.174.226-1.635.408-.318.125-.593.234-.783.234-.213 0-.49-.11-.81-.237-.428-.17-.913-.363-1.427-.363h-.036c-1.195.018-2.324.702-2.947 1.784z"/>
<path d="M21.663 23.5c-.723.03-1.591.475-2.11 1.083-.441.51-.872 1.362-.758 2.22.007.054.05.095.105.1.048.003.098.005.148.005.707 0 1.47-.391 1.992-1.021.548-.666.826-1.52.742-2.285a.115.115 0 0 0-.119-.102z"/>
</g>
</g>
</g>
</g>
</svg>
